<svg xmlns="http://www.w3.org/2000/svg" width="20" height="19.852" viewBox="0 0 20 19.852">
  <g id="_001-office-building" data-name="001-office-building" transform="translate(0 0)">
    <path id="Shape" d="M8.542,19.851V15.476a1.454,1.454,0,0,0-1.459-1.458H5a1.454,1.454,0,0,0-1.459,1.458v4.375H.833A.836.836,0,0,1,0,19.018V1.46A1.491,1.491,0,0,1,.517.343,1.479,1.479,0,0,1,1.7.018L10.859,1.41a1.458,1.458,0,0,1,1.225,1.442v17Z"/>
    <path id="Shape-2" data-name="Shape" d="M0,12.208V0L5.934,1.243A1.45,1.45,0,0,1,7.083,2.668V10.75a1.459,1.459,0,0,1-1.458,1.458Z" transform="translate(12.917 7.644)"/>
  </g>
</svg>
