<svg xmlns="http://www.w3.org/2000/svg" width="20" height="20" viewBox="0 0 20 20">
  <path id="Path" d="M19.513,11.4a.7.7,0,0,0-.588.128,7.5,7.5,0,0,1-2.276,1.335,7.1,7.1,0,0,1-2.583.462,7.525,7.525,0,0,1-7.519-7.55,7.945,7.945,0,0,1,.409-2.491A6.9,6.9,0,0,1,8.184,1.073a.657.657,0,0,0-.1-.925A.7.7,0,0,0,7.493.02,10.318,10.318,0,0,0,2.072,3.666a10.2,10.2,0,0,0,.9,13.354A10.025,10.025,0,0,0,10.127,20a10.135,10.135,0,0,0,9.846-7.807A.623.623,0,0,0,19.513,11.4Z" transform="translate(0 0)" fill="#697c9a"/>
</svg>
