<svg xmlns="http://www.w3.org/2000/svg" width="19.991" height="19.945" viewBox="0 0 19.991 19.945">
  <g id="_002-url" data-name="002-url" transform="translate(0 0)">
    <path id="Path" d="M1.5,5.012a5.482,5.482,0,0,0,.857,8.273.227.227,0,0,0,.284-.027,9.1,9.1,0,0,0,1.469-1.776.213.213,0,0,0-.084-.3A2.743,2.743,0,0,1,2.976,10.1h0a2.64,2.64,0,0,1-.224-1.8h0A5.841,5.841,0,0,1,4.464,6.023h0l2.5-2.556a2.568,2.568,0,0,1,3.648-.019,2.6,2.6,0,0,1,.037,3.666L9.132,8.673a.266.266,0,0,0-.06.273,7.178,7.178,0,0,1,.2,3.519.031.031,0,0,0,.052.028L12.553,9.2A5.412,5.412,0,0,0,4.822,1.623L1.514,5,1.5,5.012Z" transform="translate(5.903)"/>
    <path id="Path-2" data-name="Path" d="M13.439,7.1h0l.006,0a5.536,5.536,0,0,0,.48-3.933h0A5.434,5.434,0,0,0,11.732.043.3.3,0,0,0,11.4.058,5.254,5.254,0,0,0,9.947,1.812a.243.243,0,0,0,.1.317,2.716,2.716,0,0,1,1.04,1.061h0a2.487,2.487,0,0,1,.263,1.632h0c-.116.894-1.019,1.714-1.736,2.452h0c-.546.559-1.935,1.974-2.491,2.542a2.592,2.592,0,1,1-3.7-3.629L4.938,4.624A.266.266,0,0,0,5,4.356,7.564,7.564,0,0,1,4.783.847.031.031,0,0,0,4.73.819L1.551,4.064a5.5,5.5,0,0,0,.039,7.693,5.428,5.428,0,0,0,7.653-.078c.724-.81,3.822-3.678,4.2-4.578Z" transform="translate(0 6.648)"/>
  </g>
</svg>
