<svg id="_004-twitter" data-name="004-twitter" xmlns="http://www.w3.org/2000/svg" width="20" height="16.25" viewBox="0 0 20 16.25">
  <path id="Path" d="M20,1.924a8.549,8.549,0,0,1-2.362.647A4.077,4.077,0,0,0,19.441.3a8.194,8.194,0,0,1-2.6.992A4.1,4.1,0,0,0,9.749,4.1a4.222,4.222,0,0,0,.1.935A11.606,11.606,0,0,1,1.392.747a4.1,4.1,0,0,0,1.26,5.48A4.049,4.049,0,0,1,.8,5.722v.045A4.119,4.119,0,0,0,4.085,9.8a4.092,4.092,0,0,1-1.075.135,3.625,3.625,0,0,1-.776-.07,4.139,4.139,0,0,0,3.831,2.856A8.239,8.239,0,0,1,.981,14.466,7.68,7.68,0,0,1,0,14.41a11.543,11.543,0,0,0,6.29,1.84A11.59,11.59,0,0,0,17.96,4.582c0-.181-.006-.356-.015-.53A8.18,8.18,0,0,0,20,1.924Z"/>
</svg>
